<svg width="24" height="15" viewBox="0 0 24 15" fill="none" xmlns="http://www.w3.org/2000/svg">
<g id="material-symbols:arrow-back-ios-rounded" clip-path="url(#clip0_2013_721)">
<path id="Vector" d="M2.89961 5.37495L11.2996 13.8C11.3996 13.9 11.5079 13.9706 11.6246 14.012C11.7413 14.054 11.8663 14.075 11.9996 14.075C12.1329 14.075 12.2579 14.054 12.3746 14.012C12.4913 13.9706 12.5996 13.9 12.6996 13.8L21.1246 5.37495C21.3579 5.14162 21.4746 4.84995 21.4746 4.49995C21.4746 4.14995 21.3496 3.84995 21.0996 3.59995C20.8496 3.34995 20.5579 3.22495 20.2246 3.22495C19.8913 3.22495 19.5996 3.34995 19.3496 3.59995L11.9996 10.95L4.64961 3.59995C4.41628 3.36662 4.12894 3.24995 3.78761 3.24995C3.44561 3.24995 3.14961 3.37495 2.89961 3.62495C2.64961 3.87495 2.52461 4.16662 2.52461 4.49995C2.52461 4.83328 2.64961 5.12495 2.89961 5.37495Z" fill="#101010"/>
</g>
<defs>
<clipPath id="clip0_2013_721">
<rect width="14" height="24" fill="white" transform="matrix(1.19249e-08 -1 -1 -1.19249e-08 24 14.5)"/>
</clipPath>
</defs>
</svg>
